<svg xmlns="http://www.w3.org/2000/svg" viewBox="0 0 108.26 108.26"><defs><style>.cls-2{fill:#fff}</style></defs><g id="Layer_2" data-name="Layer 2"><g id="Layer_1-2" data-name="Layer 1"><circle cx="54.13" cy="54.13" r="54.13" fill="#394539"/><path class="cls-2" d="M22.44 80.15a2.06 2.06 0 00.41 2 4.26 4.26 0 001.46 1.25 22.47 22.47 0 01-2.39-1 14.48 14.48 0 01-4.68-4 12 12 0 01-2-11 8.19 8.19 0 016.85-5.2h.32c-.73 0 1.24-.1.52-.1a8.93 8.93 0 012.8.52 7.83 7.83 0 014.47 4.26 7.68 7.68 0 01.24 6.12 7.53 7.53 0 01-4.06 4.47c-.2.1-.52.21-.72.31-1.25.5-2.81 1.22-3.22 2.37z"/><path class="cls-2" d="M22.31 30.8a7.93 7.93 0 003.12 7.9l19.11 14.23a21.41 21.41 0 015.92 6.76 17.08 17.08 0 012.08 9.55 15 15 0 01-4.47 8.94 17.91 17.91 0 01-11 5.19 10.38 10.38 0 002.6-1.76 8.12 8.12 0 002.18-4.16 7.91 7.91 0 00-3.12-7.89L19.61 55.32a20.74 20.74 0 01-5.92-6.85A16.6 16.6 0 0111.61 39a14.46 14.46 0 014.47-8.93 18 18 0 0111-5.2 7.3 7.3 0 00-2.6 1.77 8.09 8.09 0 00-2.17 4.16z"/><path class="cls-2" d="M42.16 28.1a2.06 2.06 0 00-.41-2 4.48 4.48 0 00-1.46-1.25c.84.32 1.56.63 2.39 1A14.51 14.51 0 0147.36 30a11.94 11.94 0 012 11 8.18 8.18 0 01-6.85 5.19h-.32c.73 0-1.24.1-.51.1a9 9 0 01-2.81-.51 7.86 7.86 0 01-4.47-4.26 7.7 7.7 0 01-.21-6.24 7.56 7.56 0 014.06-4.47c.2-.1.52-.2.72-.31 1.22-.5 2.78-1.25 3.19-2.4zM56.92 54.7v-21a8.69 8.69 0 00-3.12-7c-.52-.31-.94-.62-1.46-.93.83.21 1.77.41 2.81.73a26.59 26.59 0 018.21 4.15 24.57 24.57 0 017.16 8.73 35.65 35.65 0 013 15.06v21a8.53 8.53 0 003.11 7 5.94 5.94 0 001.46.93 17.5 17.5 0 01-2.81-.73 26.18 26.18 0 01-8.2-4 25.73 25.73 0 01-7.17-8.83 35.3 35.3 0 01-2.99-15.11zM84.25 25.51a12.53 12.53 0 017.89 3 16.67 16.67 0 014 5.4c.21.62.42 1.35.63 2.08a3.82 3.82 0 00-1.15-1.56 2 2 0 00-1.45-.62 1.16 1.16 0 00-.52.1c-1.14.31-1.87 1.77-2.6 3a3.36 3.36 0 01-.31.63 7.74 7.74 0 01-4.78 3.84 8 8 0 01-2.28.31 8.17 8.17 0 01-3.85-.93 7.88 7.88 0 01-4-4.78 9.74 9.74 0 01-.31-3.43 8.16 8.16 0 015.82-6.65 9 9 0 012.91-.39z"/></g></g></svg>